<?xml version="1.0" ?><!DOCTYPE svg PUBLIC "-//W3C//DTD SVG 1.1//EN" "http://www.w3.org/Graphics/SVG/1.1/DTD/svg11.dtd"><svg viewBox="0 0 512 512" xmlns="http://www.w3.org/2000/svg" xmlns:xlink="http://www.w3.org/1999/xlink"><style>:root>svg{display:none}:root>svg:target{display:block}</style><svg viewBox="0 0 32 32" id="arrow-up" xmlns="http://www.w3.org/2000/svg"><style>.st0{display:none}.ast2{fill:#0097e2}</style><g id="aicon"><path class="ast2" d="M21 16c-.26 0-.51-.1-.71-.29L16 11.41l-4.29 4.29a.996.996 0 11-1.41-1.41l5-5a.996.996 0 011.41 0l5 5c.39.39.39 1.02 0 1.41-.2.2-.45.3-.71.3z"/><path class="ast2" d="M21 22c-.26 0-.51-.1-.71-.29L16 17.41l-4.29 4.29a.996.996 0 11-1.41-1.41l5-5a.996.996 0 011.41 0l5 5c.39.39.39 1.02 0 1.41-.2.2-.45.3-.71.3z"/></g></svg><svg viewBox="0 0 511.977 511.977" id="calendar" xmlns="http://www.w3.org/2000/svg"><path d="M14.977 390.988h392c3.516 0 6.914-1.23 9.609-3.472 3.765-3.153 89.652-77.038 94.889-236.528h-421C85.258 295.762 6.16 363.81 5.338 364.489.519 368.561-1.254 375.212.914 381.13c2.153 5.903 7.764 9.858 14.063 9.858zM496.976 60.988h-75v-15c0-8.4-6.6-15-15-15s-15 6.6-15 15v15h-76v-15c0-8.4-6.6-15-15-15s-15 6.6-15 15v15h-75v-15c0-8.4-6.6-15-15-15s-15 6.6-15 15v15h-75c-8.4 0-15 6.6-15 15v45h421v-45c0-8.4-6.6-15-15-15z"/><path d="M435.849 410.515c-8.145 6.782-18.369 10.474-28.872 10.474h-316v45c0 8.291 6.709 15 15 15h391c8.291 0 15-6.709 15-15V297.843c-28.92 70.951-69.276 106.937-76.128 112.672z"/></svg><svg viewBox="0 0 35.99 35.991" id="comment" xmlns="http://www.w3.org/2000/svg"><path d="M35.49 17.416c0 3.613-1.594 6.91-4.217 9.453v6.248l-6.248-2.39a20.416 20.416 0 01-7.03 1.232C8.333 31.959.5 25.448.5 17.417.5 9.386 8.333 2.874 17.995 2.874S35.49 9.385 35.49 17.416z"/><path d="M31.273 33.617a.502.502 0 01-.179-.033l-6.074-2.323a20.867 20.867 0 01-7.025 1.199C8.073 32.459 0 25.711 0 17.417S8.073 2.374 17.995 2.374c9.923 0 17.995 6.748 17.995 15.042 0 3.531-1.496 6.954-4.217 9.663v6.038a.5.5 0 01-.5.5zm-6.248-3.39c.061 0 .121.011.179.033l5.569 2.13v-5.521a.5.5 0 01.152-.359c2.621-2.541 4.064-5.771 4.064-9.094 0-7.743-7.624-14.042-16.995-14.042S1 9.673 1 17.417 8.624 31.46 17.995 31.46c2.375 0 4.683-.404 6.858-1.202a.488.488 0 01.172-.031z"/></svg><svg fill="none" viewBox="0 0 19 19" id="fb" xmlns="http://www.w3.org/2000/svg"><path d="M4.708 18.89v-8.446H.113v-3.04h4.595V4.805C4.708 2.765 7.422.89 13.676.89c2.533 0 4.405.118 4.405.118l-.148 2.84s-1.91-.009-3.993-.009c-2.255 0-2.617.505-2.617 1.344v2.22h6.79l-.296 3.041h-6.494v8.446H4.708z" fill="#F5F5F5" fill-opacity=".75"/></svg><svg viewBox="0 0 412.735 412.735" id="heart" xmlns="http://www.w3.org/2000/svg"><path d="M295.706 35.522a115.985 115.985 0 00-89.339 41.273 114.413 114.413 0 00-89.339-41.273C52.395 35.522 0 87.917 0 152.55c0 110.76 193.306 218.906 201.143 223.086a9.404 9.404 0 0010.449 0c7.837-4.18 201.143-110.759 201.143-223.086 0-64.633-52.396-117.028-117.029-117.028z"/></svg><svg viewBox="0 0 502.664 502.664" id="icon" xmlns="http://www.w3.org/2000/svg"><g fill="#010002"><path d="M153.821 358.226L0 274.337v-46.463l153.821-83.414v54.574L46.636 250.523l107.185 53.431v54.272zM180.094 387.584L282.103 115.08h32.227L212.084 387.584h-31.99zM348.843 358.226v-54.272l107.164-52.999-107.164-52.59v-53.927l153.821 83.522v46.183l-153.821 84.083z"/></g></svg><svg viewBox="0 0 21 20" id="instagram" xmlns="http://www.w3.org/2000/svg"><path d="M15.563 2.5h-10c-1.417 0-2.5 1.083-2.5 2.5v10c0 1.417 1.083 2.5 2.5 2.5h10c1.417 0 2.5-1.083 2.5-2.5V5c0-1.417-1.083-2.5-2.5-2.5zm-5 5c1.417 0 2.5 1.083 2.5 2.5s-1.083 2.5-2.5 2.5-2.5-1.083-2.5-2.5 1.083-2.5 2.5-2.5zm3.167-1.667c0-.583.5-1 1-1s1 .5 1 1-.417 1-1 1c-.584 0-1-.416-1-1zm1.833 10h-10c-.5 0-.833-.333-.833-.833v-5h1.666a4.126 4.126 0 004.167 4.167A4.126 4.126 0 0014.73 10h1.666v5c0 .5-.333.833-.833.833z" fill="#F5F5F5" fill-opacity=".75"/></svg><svg fill="none" viewBox="0 0 18 24" id="location" xmlns="http://www.w3.org/2000/svg"><path d="M9 0C4.038 0 0 4.066 0 9.065c0 7.103 8.154 14.437 8.501 14.745a.749.749 0 00.998.001C9.846 23.502 18 16.168 18 9.065 18 4.066 13.962 0 9 0zm0 14c-2.757 0-5-2.243-5-5s2.243-5 5-5 5 2.243 5 5-2.243 5-5 5z" fill="#fff"/></svg><svg fill="none" viewBox="0 0 70 70" id="logo" xmlns="http://www.w3.org/2000/svg"><path d="M26.937.453c-2.82.733-7.219 2.784-9.775 4.57-7.538 5.267-11.674 10.722-14.72 19.45C.903 28.835-.15 35.531.019 39.67c.131 3.028.507 5.06 1.522 8.144 1.053 3.217 3.121 7.28 3.685 7.28.075 0 .244-.245.376-.546.507-1.26 1.767-1.919 4.342-2.276.771-.113 1.861-.282 2.425-.376a51.185 51.185 0 012.82-.358c.978-.112 2.67-.32 3.76-.47 2.237-.338 2.82-.357 2.82-.17 0 .283-2.426 1.524-4.644 2.427-2.914 1.166-5.056 2.333-5.921 3.217-.94.996-1.654 2.106-1.654 2.595 0 .546-.282.753-1.316 1.035-3.628.94-3.685 1.11-.47 1.41 1.485.151 4.041.659 4.511.903.207.113.921.621 1.598 1.166.677.527 1.654 1.185 2.162 1.449.526.263 1.203.62 1.504.79 3.083 1.655 7.782 3.14 12.237 3.874 3.083.49 9.587.189 13.29-.639 4.362-.978 10.133-3.46 12.727-5.492 3.026-2.352 3.966-3.18 5.414-4.684 4.173-4.345 7.294-10.477 8.12-15.987.828-5.493.865-7.035.264-11.662-.395-3.01-.752-4.232-1.222-4.232-.188 0-.357.131-.357.263 0 .809-.62 4.702-.921 5.85-1.41 5.304-5.132 10.815-9.493 14.088-3.365 2.52-4.775 3.254-9.512 4.796-2.444.809-4.474 1.147-7.802 1.26-2.65.113-4.549-.056-5.92-.489a29.688 29.688 0 00-1.561-.395c-.733-.15-1.166-.357-1.297-.602-.282-.545-.113-4.326.207-4.72.263-.302 2.255-1.58 5.075-3.217a8.729 8.729 0 001.147-.865c.282-.264.79-.583 1.146-.734.358-.131 1.016-.526 1.486-.846.47-.339 1.56-1.016 2.443-1.505.884-.489 2.369-1.392 3.328-1.994.958-.62 1.767-1.11 1.804-1.11.057 0 3.572-1.974 6.617-3.705.62-.339 1.335-.79 1.598-.978.545-.414 2.65-1.693 6.767-4.157 4.286-2.539 4.888-2.99 4.888-3.498 0-.226-.094-.49-.207-.546-.225-.15-1.692.414-4.305 1.712-1.09.527-2.782 1.279-3.76 1.655-.977.395-2.01.828-2.311.978-1.26.659-7.802 2.07-10.001 2.163-1.166.057-3.722-.263-4.718-.602-2.332-.752-4.926-2.783-6.242-4.871-.169-.264-.545-.771-.827-1.129-.752-.978-1.334-2.539-2.199-6.019-.996-4.044-1.542-8.445-1.692-13.636L31.636.077h-.94l-.037 23.04c-.019 12.678-.094 23.211-.15 23.418-.057.264-.865.734-2.632 1.58-2.895 1.373-2.688 1.392-4.587-.113-.64-.489-1.41-1.072-1.71-1.297-3.178-2.314-6.674-7.487-8.347-12.34-1.41-4.119-1.372-11.06.113-16.044.639-2.2 2.613-6.094 4.098-8.125 2.782-3.78 7.068-7.336 10.79-8.99.94-.415 1.372-.847 1.109-1.11-.188-.189-.62-.113-2.406.357zM17.95 58.385c1.41.846 1.279 2.05-.32 2.878-.62.32-1.014.395-1.503.32-1.542-.283-2.65-1.392-2.35-2.352.17-.508 1.823-1.316 2.707-1.316.357 0 1.015.207 1.466.47z" fill="#FCD21F" fill-opacity=".79"/><path d="M45.359 5.158c-2.763.62-4.173 1.28-6.053 2.822-1.504 1.222-1.805 1.749-1.26 2.181 1.467 1.091 5.076 2.239 7.651 2.427l1.448.113V8.9c0-2.069-.056-3.78-.132-3.8-.094 0-.32-.037-.526-.074-.207-.02-.714.037-1.128.131zM48.498 5.12c-.413.17-.413.189-.376 3.8l.057 3.63.977.057c1.918.113 7.933-1.844 8.253-2.671.15-.395-.339-.978-1.692-2.07-1.466-1.147-3.233-2.03-4.907-2.444-.714-.17-1.447-.358-1.597-.395-.15-.038-.47.018-.715.094zM57.484 11.14c-.79.639-1.523.959-3.29 1.41-2.068.527-3.854.828-5.038.847h-1.09l.056 2.106.057 2.126 5.977.056c5.508.038 5.978.019 6.091-.282.245-.64-.47-3.95-1.165-5.304-.358-.715-.715-1.354-.79-1.392-.094-.057-.451.15-.808.432zM36.505 11.534c-.62.997-.959 1.938-1.41 4.007-.263 1.26-.3 1.73-.15 1.937.188.207 1.335.245 6.166.207l5.94-.056.056-2.126.057-2.106h-.94c-1.335 0-3.76-.339-4.53-.64-.358-.15-1.166-.395-1.786-.583-.62-.188-1.335-.47-1.598-.658-1.203-.828-1.26-.828-1.805.018zM34.983 18.757c-.226.64 1.127 4.74 1.992 5.981.846 1.204 1.278 1.298 2.237.527.395-.3.959-.62 1.278-.696.301-.075.828-.3 1.185-.489.639-.376 1.504-.602 3.496-.94 2.068-.358 1.974-.226 1.974-2.596v-2.069h-6.016c-5.131.019-6.052.056-6.146.282zM48.122 20.676l.057 2.22 1.034.112c1.24.15 3.026.658 3.985 1.129.395.206.846.357 1.015.357.357 0 2.143 1.129 2.143 1.354 0 .076.188.15.432.15.771 0 2.35-2.238 2.745-3.893.094-.395.3-1.241.489-1.9.169-.658.263-1.316.206-1.467-.075-.225-1.09-.263-6.128-.263h-6.034l.056 2.2zM42.596 24.7c-1.617.64-2.782 1.28-3.478 1.863-.32.263-.132.658.583 1.185 1.617 1.241 5.414 2.67 6.748 2.54l.602-.057V24.024l-1.316-.038c-1.147-.019-1.56.057-3.14.715zM48.216 24.061c-.207.189-.15 5.493.057 5.869.15.3.3.32 1.071.188a17.403 17.403 0 004.042-1.28c1.278-.563 2.594-1.58 2.594-1.993 0-.282-2.895-1.994-4.324-2.52-.996-.377-3.158-.546-3.44-.264z" fill="#FCD21F" fill-opacity=".79"/></svg><svg fill="none" viewBox="0 0 24 24" id="mail" xmlns="http://www.w3.org/2000/svg"><g clip-path="url(#jclip0)" fill="#fff"><path d="M23.788 4.768L16.51 12l7.278 7.232c.132-.275.212-.58.212-.904V5.672c0-.325-.08-.629-.212-.904zM21.89 3.563H2.11c-.325 0-.63.08-.904.21l9.303 9.257c.822.823 2.16.823 2.982 0l9.303-9.256a2.085 2.085 0 00-.904-.212zM.211 4.768A2.085 2.085 0 000 5.672v12.656c0 .325.08.629.211.904L7.491 12 .21 4.768z"/><path d="M15.515 12.994l-1.03 1.03a3.52 3.52 0 01-4.97 0l-1.03-1.03-7.28 7.232c.276.132.58.212.904.212h19.782c.324 0 .628-.08.903-.212l-7.279-7.232z"/></g><defs><clipPath id="jclip0"><path fill="#fff" d="M0 0h24v24H0z"/></clipPath></defs></svg><svg fill="none" viewBox="0 0 21 20" id="ok" xmlns="http://www.w3.org/2000/svg"><path d="M10.27 10.284c-2.354 0-4.31-1.955-4.31-4.268 0-2.393 1.956-4.35 4.31-4.35 2.436 0 4.312 1.956 4.312 4.35a4.285 4.285 0 01-4.298 4.269h-.014zm0-6.103c-.997 0-1.755.837-1.755 1.836 0 .996.758 1.755 1.756 1.755 1.037 0 1.756-.759 1.756-1.755 0-1-.719-1.836-1.757-1.836zm1.717 9.655l2.435 2.354c.48.517.48 1.276 0 1.755-.518.517-1.317.517-1.716 0l-2.435-2.394-2.355 2.394c-.24.24-.56.358-.92.358-.279 0-.598-.12-.878-.358-.479-.48-.479-1.238 0-1.756l2.475-2.354a11.244 11.244 0 01-2.552-1.116c-.6-.319-.719-1.117-.4-1.716.4-.598 1.118-.757 1.757-.358a5.516 5.516 0 005.748 0c.639-.4 1.396-.24 1.756.358.36.6.199 1.396-.36 1.716-.758.48-1.636.838-2.555 1.118v-.001z" fill="#F5F5F5" fill-opacity=".75"/></svg><svg fill="none" viewBox="0 0 24 24" id="phone" xmlns="http://www.w3.org/2000/svg"><path d="M18.246 15.876c-.784-.774-1.762-.774-2.542 0-.594.59-1.188 1.179-1.773 1.778-.16.165-.294.2-.489.09-.385-.21-.794-.38-1.164-.61-1.723-1.083-3.166-2.476-4.445-4.045-.634-.779-1.198-1.613-1.593-2.552-.08-.19-.065-.315.09-.47.594-.574 1.174-1.163 1.758-1.752.814-.82.814-1.778-.005-2.602-.464-.47-.929-.93-1.393-1.399-.48-.48-.954-.964-1.439-1.438-.784-.764-1.763-.764-2.542.005C2.11 3.47 1.536 4.074.926 4.654.362 5.188.077 5.842.017 6.607c-.094 1.243.21 2.417.64 3.56.879 2.368 2.217 4.47 3.84 6.398 2.193 2.607 4.81 4.67 7.871 6.158 1.379.67 2.807 1.184 4.36 1.269 1.069.06 1.998-.21 2.742-1.044.51-.57 1.084-1.089 1.623-1.633.8-.81.804-1.788.01-2.587a775.863 775.863 0 00-2.857-2.852zM17.293 11.897l1.843-.315a8.237 8.237 0 00-2.303-4.445 8.193 8.193 0 00-4.694-2.342l-.26 1.853a6.356 6.356 0 013.636 1.813 6.355 6.355 0 011.778 3.436zM20.174 3.886A13.589 13.589 0 0012.384 0l-.26 1.853a11.782 11.782 0 016.732 3.356 11.773 11.773 0 013.301 6.368L24 11.262a13.688 13.688 0 00-3.826-7.376z" fill="#FFFCFC"/></svg><svg fill="none" viewBox="0 0 21 20" id="telegram" xmlns="http://www.w3.org/2000/svg"><g clip-path="url(#mclip0)"><path fill-rule="evenodd" clip-rule="evenodd" d="M20.262 10c0 5.523-4.477 10-10 10-5.522 0-10-4.477-10-10 0-5.522 4.478-10 10-10 5.523 0 10 4.478 10 10zM10.62 7.383c-.972.404-2.916 1.241-5.831 2.511-.473.188-.722.373-.744.553-.039.305.343.425.861.587.071.023.145.045.22.07.51.166 1.197.36 1.554.368.324.006.686-.127 1.085-.4 2.723-1.84 4.129-2.769 4.217-2.789.063-.014.15-.032.208.02.058.052.052.15.046.177-.038.16-1.533 1.552-2.308 2.272-.242.224-.412.383-.447.42-.079.08-.159.158-.235.232-.475.457-.83.8.02 1.36.408.27.735.492 1.06.713.356.243.711.485 1.171.786.117.077.229.156.338.234.414.296.786.56 1.246.519.267-.025.544-.276.684-1.025.33-1.772.982-5.608 1.133-7.19.01-.131.004-.263-.017-.394a.422.422 0 00-.143-.27c-.12-.098-.304-.119-.387-.117-.376.007-.953.208-3.73 1.363z" fill="#F5F5F5" fill-opacity=".75"/></g><defs><clipPath id="mclip0"><path fill="#fff" transform="translate(.262)" d="M0 0h20v20H0z"/></clipPath></defs></svg><svg fill="none" viewBox="0 0 21 20" id="tiktok" xmlns="http://www.w3.org/2000/svg"><path d="M11.307.017C12.397 0 13.482.01 14.565 0c.066 1.276.524 2.575 1.458 3.477.932.924 2.25 1.347 3.533 1.49v3.356c-1.202-.04-2.41-.29-3.5-.807-.475-.215-.918-.492-1.35-.775-.007 2.435.01 4.867-.017 7.292a6.344 6.344 0 01-1.126 3.284c-1.09 1.599-2.982 2.64-4.925 2.673-1.192.068-2.383-.257-3.399-.856-1.683-.992-2.867-2.809-3.04-4.759a13.935 13.935 0 01-.01-1.24 6.247 6.247 0 012.152-4.134c1.38-1.202 3.313-1.775 5.123-1.436.017 1.234-.032 2.468-.032 3.702-.827-.268-1.793-.193-2.516.31-.528.348-.928.86-1.137 1.457-.172.423-.123.892-.113 1.341.198 1.367 1.513 2.517 2.917 2.392.93-.01 1.823-.55 2.308-1.34.157-.277.332-.56.342-.886.081-1.49.049-2.975.059-4.465.007-3.36-.01-6.71.016-10.059h-.001z" fill="#F5F5F5" fill-opacity=".75"/></svg><svg viewBox="0 0 460.8 460.8" id="user" xmlns="http://www.w3.org/2000/svg"><path d="M230.432 0c-65.829 0-119.641 53.812-119.641 119.641s53.812 119.641 119.641 119.641 119.641-53.812 119.641-119.641S296.261 0 230.432 0zM435.755 334.89c-3.135-7.837-7.314-15.151-12.016-21.943-24.033-35.527-61.126-59.037-102.922-64.784-5.224-.522-10.971.522-15.151 3.657-21.943 16.196-48.065 24.555-75.233 24.555s-53.29-8.359-75.233-24.555c-4.18-3.135-9.927-4.702-15.151-3.657-41.796 5.747-79.412 29.257-102.922 64.784-4.702 6.792-8.882 14.629-12.016 21.943-1.567 3.135-1.045 6.792.522 9.927 4.18 7.314 9.404 14.629 14.106 20.898 7.314 9.927 15.151 18.808 24.033 27.167 7.314 7.314 15.673 14.106 24.033 20.898 41.273 30.825 90.906 47.02 142.106 47.02s100.833-16.196 142.106-47.02c8.359-6.269 16.718-13.584 24.033-20.898 8.359-8.359 16.718-17.241 24.033-27.167 5.224-6.792 9.927-13.584 14.106-20.898 2.611-3.135 3.133-6.793 1.566-9.927z"/></svg><svg fill="none" viewBox="0 0 21 20" id="vk" xmlns="http://www.w3.org/2000/svg"><path d="M18.682 5.713c.116-.388 0-.672-.552-.672h-1.828c-.465 0-.677.246-.794.516 0 0-.929 2.265-2.246 3.735-.425.427-.619.562-.85.562-.116 0-.285-.135-.285-.522v-3.62c0-.465-.134-.671-.521-.671H8.734c-.29 0-.465.215-.465.42 0 .44.658.542.726 1.781v2.69c0 .59-.106.697-.34.697-.618 0-2.125-2.274-3.02-4.877-.173-.506-.35-.71-.816-.71H2.992c-.522 0-.626.245-.626.516 0 .485.619 2.885 2.884 6.059 1.51 2.167 3.636 3.342 5.572 3.342 1.161 0 1.305-.26 1.305-.71V12.61c0-.522.11-.627.478-.627.27 0 .735.137 1.82 1.181 1.237 1.239 1.442 1.794 2.138 1.794h1.827c.522 0 .782-.26.632-.776-.164-.512-.755-1.258-1.54-2.14-.427-.504-1.065-1.045-1.259-1.316-.27-.35-.192-.504 0-.814.001.001 2.227-3.134 2.459-4.2z" fill="#F5F5F5" fill-opacity=".75"/></svg><svg fill="none" viewBox="0 0 20 20" id="youtube" xmlns="http://www.w3.org/2000/svg"><g clip-path="url(#qclip0)"><path d="M20 17.59H0V2.41h20v15.18zM7.122 14.436l6.993-4.392L7.122 5.65v8.785z" fill="#F5F5F5" fill-opacity=".75"/></g><defs><clipPath id="qclip0"><path fill="#fff" d="M0 0h20v20H0z"/></clipPath></defs></svg></svg>